<svg id="Capa_1" enable-background="new 0 0 502.188 502.188" height="512" viewBox="0 0 502.188 502.188" width="512" xmlns="http://www.w3.org/2000/svg"><g><path d="m268.892 111.58h-74.449c-8.701 0-16 2.526-21.693 7.511-5.997 5.252-9.167 11.958-9.167 19.394v228.741c0 9.176 4.795 16.832 13.492 21.553 14.459 7.866 34.658 7.863 49.115.003 8.705-4.729 13.5-12.384 13.5-21.556v-67.686c33.918 0 68.619.455 96.223-22.652 21.365-17.879 28.01-45.799 27.859-72.586 0-31.444-8.975-55.11-26.675-70.341-17.261-14.851-40.208-22.381-68.205-22.381zm74.879 92.722c.205 20.773-3.963 43.246-20.695 57.249-14.259 11.937-33.699 17.989-57.78 17.989h-35.606c-5.523 0-10 4.478-10 10v77.686c0 10.161-36.107 10.246-36.107 0v-228.742c0-5.211 6.885-6.904 10.86-6.904h74.449c23.074 0 41.632 5.901 55.159 17.541 13.085 11.26 19.72 29.825 19.72 55.181z"/><path d="m265.295 160.493h-35.606c-5.523 0-10 4.478-10 10v75.888c0 5.522 4.477 10 10 10h35.606c57.257 0 57.274-95.888 0-95.888zm22.37 49.922c0 22.82-10.751 25.966-22.369 25.966h-25.606v-55.888h25.606c18.404 0 22.535 13.601 22.369 29.922z"/><path d="m458.506 0h-414.825c-16.542 0-30 13.458-30 30v326.989c0 12.84 20 12.859 20 0v-326.989c0-5.514 4.486-10 10-10h414.825c5.514 0 10 4.486 10 10v442.188c0 5.514-4.486 10-10 10h-414.825c-5.514 0-10-4.486-10-10v-34.108c0-12.84-20-12.859-20 0v34.107c0 16.542 13.458 30 30 30h414.825c16.542 0 30-13.458 30-30v-442.187c0-16.542-13.458-30-30-30z"/><path d="m427.47 54.106h-352.752c-5.523 0-10 4.478-10 10v373.974c0 5.522 4.477 10 10 10h352.752c5.523 0 10-4.478 10-10v-254.326c0-12.84-20-12.859-20 0v244.326h-332.752v-353.974h332.752v29.636c0 12.84 20 12.859 20 0v-39.636c0-5.522-4.477-10-10-10z"/><path d="m18.131 406.438c3.696 2.459 8.715 2.152 12.08-.743 3.027-2.604 4.222-6.921 2.956-10.71-2.87-8.59-15.215-9.077-18.716-.688-1.804 4.324-.254 9.563 3.68 12.141z"/><path d="m436.231 138.088c-2.982-4.557-9.357-5.779-13.86-2.77-4.526 3.025-5.801 9.337-2.77 13.87 3.033 4.537 9.333 5.77 13.87 2.76 4.539-3.012 5.773-9.339 2.76-13.86z"/></g></svg>